<svg id="beyourself" xmlns="http://www.w3.org/2000/svg" width="300" viewBox="0 0 250 98.4">
<style type="text/css">
	.st0{fill:#E6EDF4;}
</style>
<g>
	<path class="st0" d="M9.8,25.5v12.1h8.4c3.3,0,5.4-0.1,6.3-0.3c1.4-0.2,2.5-0.9,3.3-1.8c0.9-1,1.3-2.2,1.3-3.8c0-1.4-0.3-2.5-1-3.4
		c-0.6-0.9-1.6-1.6-2.9-2.1c-1.3-0.5-4-0.6-8.1-0.6L9.8,25.5L9.8,25.5z M9.8,7.5V18h6c3.6,0,5.7-0.1,6.6-0.2
		c1.6-0.2,2.8-0.7,3.7-1.6c0.9-0.9,1.3-2.1,1.3-3.5c0-1.4-0.4-2.5-1.1-3.4c-0.7-0.9-1.9-1.4-3.4-1.6c-0.9-0.1-3.5-0.2-7.8-0.2
		L9.8,7.5L9.8,7.5z M0.7,0h18.1c3.6,0,6.3,0.2,8,0.5c1.8,0.3,3.3,0.9,4.7,1.8c1.4,0.9,2.5,2.2,3.4,3.8c0.9,1.6,1.4,3.3,1.4,5.3
		c0,2.1-0.6,4.1-1.7,5.9c-1.1,1.8-2.7,3.1-4.7,4c2.8,0.8,4.9,2.2,6.4,4.1c1.5,2,2.2,4.2,2.2,6.8c0,2.1-0.5,4.1-1.4,6
		c-1,2-2.2,3.5-3.9,4.7c-1.7,1.1-3.7,1.9-6.1,2.1c-1.6,0.2-5.2,0.3-11,0.3H0.7V0L0.7,0z"/>
	<path class="st0" d="M65.7,26c-0.1-2.5-0.7-4.4-2-5.7c-1.2-1.3-2.8-2-4.5-2c-1.9,0-3.4,0.7-4.7,2.1c-1.2,1.4-1.8,3.3-1.8,5.6H65.7
		L65.7,26z M65.2,34.8l8.6,1.4c-1.1,3.2-2.9,5.6-5.3,7.2c-2.4,1.7-5.4,2.5-9,2.5c-5.7,0-9.9-1.8-12.6-5.6c-2.2-3-3.2-6.7-3.2-11.3
		c0-5.5,1.4-9.7,4.2-12.7c2.8-3.1,6.4-4.6,10.7-4.6c4.9,0,8.7,1.6,11.5,4.8c2.8,3.2,4.2,8.2,4,14.8H52.6c0.1,2.6,0.7,4.6,2.1,6
		c1.3,1.4,3,2.1,5,2.1c1.4,0,2.5-0.3,3.4-1.1C64.1,37.6,64.7,36.5,65.2,34.8L65.2,34.8z"/>
	<polygon class="st0" points="16.5,97.6 16.5,78.6 0,52.4 10.7,52.4 21.4,70.3 31.8,52.4 42.3,52.4 25.7,78.6 25.7,97.6 	"/>
	<path class="st0" d="M48.9,81.2c0,3.3,0.7,5.7,2.3,7.5c1.6,1.7,3.4,2.6,5.7,2.6c2.2,0,4.1-0.9,5.7-2.6c1.6-1.7,2.3-4.2,2.3-7.5
		c0-3.2-0.7-5.7-2.3-7.4s-3.4-2.6-5.7-2.6c-2.2,0-4.2,0.9-5.7,2.6C49.7,75.5,48.9,78,48.9,81.2L48.9,81.2z M40.1,80.8
		c0-2.9,0.7-5.7,2.1-8.4c1.4-2.7,3.4-4.8,6-6.1c2.6-1.4,5.5-2.1,8.7-2.1c4.9,0,9,1.6,12.2,4.8c3.2,3.2,4.8,7.3,4.8,12.2
		c0,4.9-1.6,9.1-4.8,12.3s-7.2,4.9-12.1,4.9c-3,0-5.9-0.7-8.6-2c-2.7-1.4-4.8-3.3-6.2-6C40.8,87.7,40.1,84.5,40.1,80.8L40.1,80.8z"
		/>
	<path class="st0" d="M102.2,97.6v-4.9c-1.2,1.7-2.8,3.1-4.7,4.1c-2,1-4,1.5-6.1,1.5c-2.2,0-4.2-0.5-5.9-1.4c-1.7-1-3-2.3-3.8-4.1
		c-0.8-1.7-1.1-4.2-1.1-7.2V64.8h8.7v15c0,4.6,0.2,7.4,0.5,8.4c0.3,1,0.9,1.8,1.7,2.5c0.9,0.6,1.9,0.9,3.2,0.9c1.5,0,2.8-0.4,4-1.2
		c1.1-0.8,2-1.8,2.4-3c0.5-1.2,0.6-4.1,0.6-8.8V64.8h8.7v32.7L102.2,97.6L102.2,97.6z"/>
	<path class="st0" d="M127.6,97.6h-8.7V64.8h8v4.7c1.4-2.2,2.6-3.7,3.7-4.4c1.1-0.7,2.4-1,3.7-1c2,0,3.8,0.5,5.7,1.6l-2.7,7.6
		c-1.4-0.9-2.8-1.4-4.1-1.4c-1.2,0-2.2,0.3-3.1,1c-0.9,0.7-1.5,1.9-2,3.6c-0.5,1.7-0.7,5.4-0.7,11v10.2H127.6z"/>
	<path class="st0" d="M140.8,88.3l8.7-1.3c0.3,1.7,1.1,3,2.2,3.8c1.1,0.9,2.7,1.3,4.8,1.3c2.2,0,3.9-0.4,5.1-1.2
		c0.7-0.6,1.1-1.3,1.1-2.3c0-0.6-0.2-1.2-0.6-1.6c-0.5-0.4-1.4-0.8-2.9-1.1c-7-1.6-11.4-2.9-13.3-4.2c-2.6-1.8-3.9-4.2-3.9-7.4
		c0-2.8,1.1-5.2,3.4-7.2c2.2-2,5.7-2.9,10.5-2.9c4.5,0,7.8,0.7,10,2.2c2.2,1.4,3.7,3.6,4.5,6.5l-8.2,1.5c-0.3-1.3-1-2.2-2-2.9
		c-1-0.7-2.4-1-4.2-1c-2.3,0-3.9,0.3-4.9,1c-0.6,0.5-1,1-1,1.8c0,0.6,0.3,1.1,0.9,1.6c0.8,0.6,3.5,1.4,8.1,2.4
		c4.6,1,7.9,2.4,9.6,3.8c1.8,1.6,2.7,3.7,2.7,6.4c0,3-1.3,5.6-3.8,7.8c-2.5,2.2-6.2,3.2-11.1,3.2c-4.5,0-8-0.9-10.6-2.7
		C143.3,93.8,141.6,91.4,140.8,88.3L140.8,88.3z"/>
	<path class="st0" d="M198.4,78.4c-0.1-2.5-0.7-4.4-2-5.7c-1.2-1.3-2.8-2-4.5-2c-1.9,0-3.4,0.7-4.7,2.1c-1.2,1.4-1.8,3.3-1.8,5.6
		L198.4,78.4L198.4,78.4z M198,87.2l8.6,1.4c-1.1,3.2-2.9,5.6-5.3,7.2c-2.4,1.7-5.4,2.5-9,2.5c-5.7,0-9.9-1.8-12.6-5.6
		c-2.2-3-3.2-6.7-3.2-11.3c0-5.5,1.4-9.7,4.2-12.7c2.8-3.1,6.4-4.6,10.7-4.6c4.9,0,8.7,1.6,11.5,4.8c2.8,3.2,4.2,8.2,4,14.8h-21.7
		c0.1,2.6,0.7,4.6,2.1,6c1.3,1.4,3,2.1,5,2.1c1.4,0,2.5-0.3,3.4-1.1C196.8,90,197.5,88.8,198,87.2L198,87.2z"/>
	<polygon class="st0" points="214.1,97.6 214.1,52.4 222.8,52.4 222.8,97.6 	"/>
	<path class="st0" d="M227.9,64.8h4.8v-2.5c0-2.8,0.3-4.8,0.9-6.1c0.6-1.4,1.7-2.5,3.2-3.3c1.6-0.9,3.6-1.3,6-1.3
		c2.5,0,4.9,0.3,7.2,1.1l-1.1,6c-1.4-0.3-2.7-0.5-4-0.5c-1.3,0-2.2,0.3-2.7,0.9c-0.5,0.6-0.8,1.7-0.8,3.4v2.3h6.5v6.8h-6.5v26h-8.7
		v-26h-4.8V64.8L227.9,64.8z"/>
</g>
</svg>
