<svg id="funatwork" xmlns="http://www.w3.org/2000/svg" width="300" viewBox="0 0 300 132.4">
<style type="text/css">
	.st0{fill:#E6EDF4;}
</style>
<g>
	<path class="st0" d="M3.2,59.6V0H44v10.1H15.2v14.2h24.9v10.1H15.2v25.4L3.2,59.6L3.2,59.6z"/>
	<path class="st0" d="M82.3,59.6v-6.4c-1.6,2.3-3.6,4.1-6.2,5.4c-2.6,1.4-5.3,2-8.1,2c-2.9,0-5.5-0.6-7.8-1.9c-2.3-1.3-3.9-3-5-5.4
		c-1.1-2.3-1.5-5.5-1.5-9.5V16.4h11.4v19.8c0,6.1,0.2,9.8,0.6,11.1c0.5,1.4,1.2,2.4,2.3,3.3c1.1,0.8,2.5,1.2,4.2,1.2
		c2,0,3.7-0.5,5.2-1.6c1.5-1.1,2.6-2.4,3.2-4c0.6-1.6,0.8-5.4,0.8-11.7V16.4h11.4v43.1H82.3z"/>
	<path class="st0" d="M143.9,59.6h-11.4v-22c0-4.7-0.2-7.6-0.8-9.1c-0.5-1.4-1.3-2.4-2.3-3.2c-1.1-0.8-2.4-1.1-3.9-1.1
		c-2,0-3.8,0.5-5.3,1.6c-1.6,1.1-2.6,2.5-3.3,4.3c-0.6,1.8-0.9,5.1-0.9,9.9v19.5h-11.4V16.3h10.6v6.4c3.8-4.8,8.5-7.3,14.2-7.3
		c2.5,0,4.8,0.5,6.9,1.4c2.1,0.9,3.6,2,4.8,3.5c1.1,1.4,1.8,3,2.3,4.8c0.5,1.8,0.6,4.3,0.6,7.7V59.6z"/>
	<path class="st0" d="M11.6,101.5L1.2,99.6c1.1-4.2,3.2-7.3,6-9.2c2.9-2,7-3,12.7-3c5.1,0,8.9,0.6,11.4,1.8c2.5,1.2,4.2,2.7,5.3,4.6
		c1,1.9,1.5,5.3,1.5,10.2l-0.2,13.3c0,3.8,0.2,6.6,0.5,8.4c0.4,1.8,1.1,3.7,2,5.8H29.2c-0.3-0.8-0.7-1.9-1.1-3.4
		c-0.2-0.7-0.3-1.1-0.4-1.4c-2,1.9-4,3.3-6.3,4.2c-2.2,1-4.6,1.4-7.1,1.4c-4.5,0-7.9-1.2-10.5-3.6c-2.5-2.3-3.8-5.4-3.8-9.1
		c0-2.4,0.6-4.6,1.7-6.5s2.8-3.4,4.9-4.4c2.1-1,5.1-1.9,9.1-2.6c5.4-1,9-2,11.1-2.8v-1.2c0-2.2-0.5-3.8-1.6-4.7
		c-1.1-0.9-3.1-1.4-6.1-1.4c-2,0-3.6,0.4-4.8,1.2C13.2,98.1,12.3,99.5,11.6,101.5z M26.8,110.7c-1.4,0.5-3.8,1.1-7,1.7
		c-3.2,0.7-5.2,1.4-6.2,2c-1.5,1.1-2.3,2.4-2.3,4s0.6,3,1.8,4.2c1.2,1.1,2.7,1.7,4.5,1.7c2,0,4-0.7,5.9-2c1.4-1.1,2.3-2.3,2.7-3.8
		c0.3-1,0.5-2.8,0.5-5.6C26.8,112.9,26.8,110.7,26.8,110.7z"/>
	<path class="st0" d="M69.1,88.3v9.1h-7.8v17.4c0,3.6,0.1,5.6,0.2,6.1c0.2,0.6,0.5,1.1,1,1.4c0.5,0.4,1.1,0.6,2,0.6
		c1.1,0,2.6-0.4,4.6-1.1l1,8.9c-2.6,1.1-5.7,1.7-9,1.7c-2,0-3.9-0.4-5.6-1.1c-1.7-0.7-2.9-1.6-3.6-2.6c-0.8-1.1-1.3-2.6-1.6-4.5
		c-0.2-1.4-0.4-4-0.4-8V97.4h-5.2v-9.1h5.2v-8.6l11.4-6.7v15.2L69.1,88.3L69.1,88.3z"/>
	<path class="st0" d="M108.7,131.5L94.5,71.9h12.3l9,40.9l10.9-40.9H141l10.4,41.6l9.2-41.6h12.1l-14.5,59.6h-12.8l-11.9-44.6
		l-11.8,44.6L108.7,131.5L108.7,131.5z"/>
	<path class="st0" d="M174.6,109.3c0-3.8,0.9-7.5,2.8-11c1.9-3.6,4.5-6.3,7.9-8.1c3.4-1.9,7.3-2.8,11.5-2.8c6.5,0,11.9,2.1,16,6.4
		c4.2,4.2,6.3,9.6,6.3,16c0,6.5-2.1,12-6.4,16.3c-4.2,4.3-9.5,6.4-15.9,6.4c-3.9,0-7.7-0.9-11.4-2.6c-3.6-1.8-6.4-4.4-8.2-7.9
		C175.5,118.4,174.6,114.3,174.6,109.3z M186.3,109.9c0,4.3,1,7.6,3,9.8c2,2.3,4.5,3.4,7.5,3.4c3,0,5.4-1.1,7.5-3.4
		c2-2.3,3-5.6,3-9.9c0-4.2-1-7.5-3-9.8c-2-2.3-4.5-3.4-7.5-3.4c-3,0-5.5,1.1-7.5,3.4C187.4,102.3,186.3,105.7,186.3,109.9z"/>
	<path class="st0" d="M239,131.5h-11.4V88.3h10.6v6.1c1.8-2.9,3.5-4.8,4.9-5.8c1.4-0.9,3.1-1.4,4.9-1.4c2.6,0,5.1,0.7,7.5,2.1
		l-3.6,10c-1.9-1.2-3.7-1.9-5.4-1.9c-1.6,0-3,0.5-4.1,1.3c-1.1,0.9-2,2.5-2.6,4.8c-0.6,2.3-1,7.1-1,14.5v13.4H239z"/>
	<path class="st0" d="M260,131.5V71.9h11.4v31.6l13.4-15.2h14.1l-14.8,15.7l15.8,27.4h-12.3l-10.8-19.4l-5.3,5.6v13.8L260,131.5
		L260,131.5z"/>
</g>
</svg>
