<svg version="1.1" id="slogan" xmlns="http://www.w3.org/2000/svg" xmlns:xlink="http://www.w3.org/1999/xlink" viewBox="0 0 771.1 49.3" style="enable-background:new 0 0 771.1 49.3;" xml:space="preserve">
<style type="text/css">
	.st0{fill:none;stroke:#9ad9ff;stroke-miterlimit:10;}
</style>
<g>
	<path class="st0" d="M30.6,16c-1.1-5.9-4.3-9.2-9.7-9.2c-7.1,0-11.8,6-11.8,17.9c0,11.8,4.6,17.9,11.7,17.9
		c6.5,0,9.7-5.2,10.4-12.7H20.3v-6.2h18.4v24.5h-5.4l-0.9-6.8c-2.4,4.8-6.9,7.4-12.5,7.4c-11.6,0-19.4-8.6-19.4-24.1
		C0.5,9.4,8.8,0.6,20.8,0.6c9.7,0,15.7,5.4,17.6,13.6L30.6,16z"/>
	<path class="st0" d="M65.7,1.3C77,1.3,82.2,5.9,82.2,14c0,5.8-3.2,10-9.2,11.8l10.7,22.1H75L65.5,27c-0.7,0-1.3,0.1-2.1,0.1h-6.6
		v20.8h-7.9V1.3H65.7z M56.8,21.1h8.1c6.4,0,9.1-2.6,9.1-7c0-4.1-2.3-6.7-8.8-6.7h-8.5V21.1z"/>
	<path class="st0" d="M127.6,24.6c0,15.4-8,24.2-20,24.2s-19.9-8.7-19.9-24.1c0-15.4,8.1-24.2,20-24.2
		C119.6,0.6,127.6,9.2,127.6,24.6z M96.3,24.7c0,11.9,4.6,17.9,11.4,17.9s11.3-6,11.3-17.9c0-11.9-4.5-17.9-11.3-17.9
		S96.3,12.7,96.3,24.7z"/>
	<path class="st0" d="M152.9,1.3c11.3,0,16.5,4.6,16.5,12.7c0,5.8-3.2,10-9.2,11.8l10.7,22.1h-8.7L152.8,27c-0.7,0-1.3,0.1-2.1,0.1
		h-6.6v20.8h-7.9V1.3H152.9z M144.1,21.1h8.1c6.4,0,9.1-2.6,9.1-7c0-4.1-2.3-6.7-8.8-6.7h-8.5V21.1z"/>
	<path class="st0" d="M216.7,47.9h-10l-4-21.7c-1.1-6.2-1.7-11.4-2.6-17.5h-0.8c-0.8,6.1-1.5,11.3-2.6,17.2l-3.8,21.9h-10l-9.1-46.6
		h8.2l3.4,21.2c0.8,5.7,1.6,11.3,2.3,17.3h0.8c0.8-5.8,1.4-11.5,2.5-17.1l3.8-21.4h10.4l3.9,22.1c0.9,5.3,1.6,10.2,2.3,16.4h0.8
		c0.9-6.2,1.4-11,2.3-16.7l3.6-21.8h7.7L216.7,47.9z"/>
	<path class="st0" d="M269,28.6v19.3h-8.2V28.6l-15-27.3h9l9.2,17.3c0.6,1.1,0.9,1.7,1.4,2.8c0.5-1.1,0.8-1.7,1.5-2.9L276,1.3h8.3
		L269,28.6z"/>
	<path class="st0" d="M327.3,24.6c0,15.4-8,24.2-20,24.2s-19.9-8.7-19.9-24.1c0-15.4,8.1-24.2,20-24.2
		C319.3,0.6,327.3,9.2,327.3,24.6z M296,24.7c0,11.9,4.6,17.9,11.4,17.9s11.3-6,11.3-17.9c0-11.9-4.5-17.9-11.3-17.9
		S296,12.7,296,24.7z"/>
	<path class="st0" d="M371.1,31.8c0,11.2-6.8,16.9-17.6,16.9c-10.8,0-17.8-5.6-17.8-16.9V1.3h8.1v30.4c0,7.6,3.7,10.9,9.8,10.9
		c6.1,0,9.8-3.2,9.8-10.9V1.3h7.6V31.8z"/>
	<path class="st0" d="M398.9,1.3c11.3,0,16.5,4.6,16.5,12.7c0,5.8-3.2,10-9.2,11.8l10.7,22.1h-8.7L398.8,27c-0.7,0-1.3,0.1-2.1,0.1
		h-6.6v20.8h-7.9V1.3H398.9z M390.1,21.1h8.1c6.4,0,9.1-2.6,9.1-7c0-4.1-2.3-6.7-8.8-6.7h-8.5V21.1z"/>
	<path class="st0" d="M468.7,16.6c-1.1-6.5-4.5-9.8-9.8-9.8c-6.9,0-11.7,6-11.7,17.9c0,11.8,4.9,17.9,11.7,17.9
		c5.6,0,8.9-3.2,10.3-10l7.6,2.3c-2.5,9.6-8.5,13.9-17.9,13.9c-12.1,0-20.2-8.7-20.2-24.1c0-15.4,8.2-24.2,20.2-24.2
		c9.5,0,15.8,5.3,17.7,14.2L468.7,16.6z"/>
	<path class="st0" d="M519.5,31.8c0,11.2-6.8,16.9-17.6,16.9c-10.8,0-17.8-5.6-17.8-16.9V1.3h8.1v30.4c0,7.6,3.7,10.9,9.8,10.9
		c6.1,0,9.8-3.2,9.8-10.9V1.3h7.6V31.8z"/>
	<path class="st0" d="M547.3,1.3c11.3,0,16.5,4.6,16.5,12.7c0,5.8-3.2,10-9.2,11.8l10.7,22.1h-8.7L547.2,27c-0.7,0-1.3,0.1-2.1,0.1
		h-6.6v20.8h-7.9V1.3H547.3z M538.5,21.1h8.1c6.4,0,9.1-2.6,9.1-7c0-4.1-2.3-6.7-8.8-6.7h-8.5V21.1z"/>
	<path class="st0" d="M580.6,47.9h-8.2V1.3h8.2V47.9z"/>
	<path class="st0" d="M629.1,24.6c0,15.4-8,24.2-20,24.2s-19.9-8.7-19.9-24.1c0-15.4,8.1-24.2,20-24.2
		C621.1,0.6,629.1,9.2,629.1,24.6z M597.8,24.7c0,11.9,4.6,17.9,11.4,17.9c6.8,0,11.3-6,11.3-17.9c0-11.9-4.5-17.9-11.3-17.9
		C602.4,6.8,597.8,12.7,597.8,24.7z"/>
	<path class="st0" d="M660.1,14.3c-1.2-5-4-7.6-8.3-7.6c-4.9,0-7.7,2.3-7.7,6.1c0,4.1,1.8,5.9,8.5,7.8l2.5,0.7
		c10.6,2.9,13.6,6.9,13.6,13.7c0,8.2-5.6,13.8-16.8,13.8c-9.1,0-15.4-4-17.6-12.1l7.7-2.5c1.2,5.4,4.7,8.4,9.7,8.4
		c6.1,0,8.9-2.6,8.9-6.7c0-4-1.4-5.9-9.1-8l-2.4-0.7c-9.9-2.9-13.1-6.8-13.1-14c0-7,5.5-12.7,15.5-12.7c8.2,0,13.9,3.8,16.4,11.6
		L660.1,14.3z"/>
	<path class="st0" d="M685.4,47.9h-8.2V1.3h8.2V47.9z"/>
	<path class="st0" d="M728.6,7.9h-13.9v40h-8.2v-40h-13.7V1.3h35.8V7.9z"/>
	<path class="st0" d="M755,28.6v19.3h-8.2V28.6l-15-27.3h9l9.2,17.3c0.6,1.1,0.9,1.7,1.4,2.8c0.5-1.1,0.8-1.7,1.5-2.9L762,1.3h8.3
		L755,28.6z"/>
</g>
</svg>
