<?xml version="1.0" encoding="utf-8"?>
<svg version="1.1" id="logo" xmlns="http://www.w3.org/2000/svg" xmlns:xlink="http://www.w3.org/1999/xlink" x="0px" y="0px"
	 viewBox="0 0 352.8 91">
<style type="text/css">
	.st0{fill:#FFFFFF;}
</style>
<g>
	<g>
		<path class="st0" d="M46.3,0.7L34.1,52.3h-5.8l-5.2-28l-5.1,28h-5.8L0,0.7h7.8l7.3,33.7l5.1-26.4h5.9l5,26.4l7.4-33.7H46.3z"/>
		<path class="st0" d="M73.6,43.1v9.2h-23V0.7h22.6v9.2H57.8v12.3h13.4v9.4H57.8v11.5H73.6z"/>
		<path class="st0" d="M106.7,37.6c0,7.1-3.4,14.8-11.3,14.8H80V0.7h14.3c6.4,0,10.5,5.5,10.5,13.3c0,3.8-1,9-5,10.7
			C104.5,25.9,106.7,31.7,106.7,37.6z M87.3,9.9v11.3h6.6c2.3,0,3.7-2.2,3.7-5.7c0-3.1-1.1-5.6-3.7-5.6H87.3z M99.4,36.5
			c0-3.2-1.5-6.6-5-6.6h-7.2v13.2h7C97.7,43.1,99.4,40,99.4,36.5z"/>
		<path class="st0" d="M122.7,37.1h7.3c0.1,3.8,2.6,6.8,5.9,6.8c3.2,0,5.4-2.4,5.4-6.1c0-2.8-1.5-4.9-4.5-6.2l-4.4-1.8
			c-7.9-3-9.3-9.8-9.3-14.5C123,6.1,128.5,0,135.4,0c6.8,0,12,5.9,12,15.7h-7.3c0-3.7-1.8-6.5-4.9-6.5c-2.8,0-5,2.5-5,5.9
			c0,1.3,0.3,4,4,5.5l4,1.6c5.4,2.2,10.2,6.3,10.2,15.1c0,10.3-6.1,15.7-12.9,15.7C127.9,53,122.7,46.3,122.7,37.1z"/>
		<path class="st0" d="M177.5,9.9h-9.9v42.4h-7.3V9.9h-9.9V0.7h27.1V9.9z"/>
		<path class="st0" d="M198.9,40h-13.5l-2.9,12.4h-7.7l13.4-51.7h7.8l13.4,51.7h-7.6L198.9,40z M196.7,30.9l-4.6-19.4l-4.5,19.4
			H196.7z"/>
		<path class="st0" d="M220.3,9.9v12.4h11.9v9.1h-11.9v20.8H213V0.7h22.2v9.2H220.3z"/>
		<path class="st0" d="M248.1,9.9v12.4H260v9.1h-11.9v20.8h-7.3V0.7H263v9.2H248.1z"/>
		<path class="st0" d="M268.6,0.7h7.3v51.7h-7.3V0.7z"/>
		<path class="st0" d="M310.9,0.7v51.7h-6.5l-13.1-32.4v32.4h-7.3V0.7h6.7l12.8,32v-32H310.9z"/>
		<path class="st0" d="M317,26.5C317,11.8,325,0,335.3,0c5.4,0,10.2,3.2,13.3,8.2l-5.3,6.5c-2-3.1-4.9-5.1-8-5.1
			c-6.3,0-11.1,7.6-11.1,16.9s4.9,17.2,11.1,17.2c4.7,0,8.4-3.2,9.3-8.6c0.1-0.4,0.2-0.8,0.2-1.3h-10.2v-8.5h18.1
			c0,19.1-7.2,27.7-17.5,27.7C325,53,317,41.2,317,26.5z"/>
	</g>
</g>
<g>
	<path class="st0" d="M175.8,77.9h-1.3v6.7h-3.8V65.8h7.5c4.3,0,6.2,3.1,6.2,6.1c0,2.7-1.4,5.1-4.6,5.7l4.9,6.9h-4.4L175.8,77.9z
		 M174.5,74.8h3c2.1,0,3-1.3,3-2.8s-1-2.9-2.7-2.9h-3.3V74.8z"/>
	<path class="st0" d="M199.5,79.4h-9.6c0.4,1.5,1.6,2.3,3.3,2.3c1.3,0,2.6-0.5,3.3-1.4l2.1,2.1c-1.2,1.6-3.4,2.5-5.7,2.5
		c-3.9,0-6.8-2.7-6.8-6.6c0-4.1,3.1-6.7,6.8-6.7c3.6,0,6.6,2.6,6.6,6.5C199.6,78.4,199.5,78.8,199.5,79.4z M196,77.1
		c-0.1-1.5-1.4-2.4-3-2.4c-1.4,0-2.7,0.7-3.1,2.4H196z"/>
	<path class="st0" d="M201.5,78.2c0-4,3.3-6.6,7-6.6c2.3,0,4.2,1.1,5.4,2.7l-2.7,1.9c-0.6-0.8-1.6-1.3-2.7-1.3c-2,0-3.4,1.4-3.4,3.3
		c0,1.9,1.4,3.3,3.4,3.3c1,0,2.1-0.5,2.7-1.3l2.7,1.9c-1.2,1.7-3.1,2.7-5.4,2.7C204.8,84.9,201.5,82.2,201.5,78.2z"/>
	<path class="st0" d="M225.7,72l-0.8,3.4c-0.8-0.4-1.4-0.5-1.8-0.5c-1.8,0-3.1,1.7-3.1,5.3v4.4h-3.6V71.9h3.5v2.7
		c0.7-2.1,2.2-3,3.7-3C224.4,71.6,225.2,71.7,225.7,72z"/>
	<path class="st0" d="M239.9,71.9v12.7h-3.6v-2.1c-0.5,1.7-2.6,2.4-3.8,2.4c-3.3,0-5.1-2.2-5-6v-7h3.6v6.6c0,2,1.2,2.9,2.4,2.9
		c1.3,0,2.9-0.7,2.9-3v-6.5H239.9z"/>
	<path class="st0" d="M243,67.5c0-1.2,1-2.1,2.3-2.1c1.3,0,2.3,0.9,2.3,2.1s-1,2.2-2.3,2.2C244.1,69.7,243,68.7,243,67.5z
		 M243.5,71.9h3.6v12.7h-3.6V71.9z"/>
	<path class="st0" d="M258.2,74.7h-2.7v10h-3.6v-10h-2.3v-2.8h2.3v-4.7h3.6v4.7h2.7V74.7z"/>
	<path class="st0" d="M260,67.5c0-1.2,1-2.1,2.3-2.1c1.3,0,2.3,0.9,2.3,2.1s-1,2.2-2.3,2.2C261.1,69.7,260,68.7,260,67.5z
		 M260.5,71.9h3.6v12.7h-3.6V71.9z"/>
	<path class="st0" d="M280.1,77.6v7h-3.6V78c0-2-1.2-2.9-2.4-2.9c-1.3,0-2.9,0.7-2.9,3v6.5h-3.6V71.9h3.6V74
		c0.5-1.7,2.6-2.5,3.8-2.5C278.4,71.6,280.1,73.8,280.1,77.6z"/>
	<path class="st0" d="M296.7,71.9v11c0,5.6-2.8,8.2-7.3,8.2c-2.7,0-5.1-1.5-6.2-3.9l3-1.3c0.5,1.1,1.9,2,3.2,2
		c2.3,0,3.7-1.3,3.7-4.6v-0.2c-0.9,1.2-2.7,1.8-4.1,1.8c-3.3,0-6.2-2.5-6.2-6.6c0-4.1,3-6.6,6.2-6.6c1.4,0,3.2,0.6,4.1,1.8v-1.5
		H296.7z M293,78.2c0-2-1.6-3.3-3.3-3.3c-1.8,0-3.3,1.4-3.3,3.3c0,1.9,1.5,3.3,3.3,3.3C291.5,81.5,293,80.2,293,78.2z"/>
	<path class="st0" d="M306.2,79.1h3.8c0,1.4,1.3,2.5,3.1,2.5c1.7,0,2.8-0.9,2.8-2.2c0-1-0.8-1.8-2.4-2.3l-2.3-0.7
		c-4.1-1.1-4.9-3.6-4.9-5.3c0-3.4,2.9-5.6,6.5-5.6c3.5,0,6.3,2.2,6.3,5.7h-3.8c0-1.3-0.9-2.4-2.6-2.4c-1.5,0-2.6,0.9-2.6,2.2
		c0,0.5,0.1,1.4,2.1,2l2.1,0.6c2.8,0.8,5.3,2.3,5.3,5.5c0,3.7-3.2,5.7-6.7,5.7C309,84.9,306.2,82.4,306.2,79.1z"/>
	<path class="st0" d="M322,67.5c0-1.2,1-2.1,2.3-2.1c1.3,0,2.3,0.9,2.3,2.1s-1,2.2-2.3,2.2C323.1,69.7,322,68.7,322,67.5z
		 M322.5,71.9h3.6v12.7h-3.6V71.9z"/>
	<path class="st0" d="M337.2,74.7h-2.7v10h-3.6v-10h-2.3v-2.8h2.3v-4.7h3.6v4.7h2.7V74.7z"/>
	<path class="st0" d="M351.8,79.4h-9.6c0.4,1.5,1.6,2.3,3.3,2.3c1.3,0,2.6-0.5,3.3-1.4l2.1,2.1c-1.2,1.6-3.4,2.5-5.7,2.5
		c-3.9,0-6.8-2.7-6.8-6.6c0-4.1,3.1-6.7,6.8-6.7c3.6,0,6.6,2.6,6.6,6.5C351.9,78.4,351.8,78.8,351.8,79.4z M348.3,77.1
		c-0.1-1.5-1.4-2.4-3-2.4c-1.4,0-2.7,0.7-3.1,2.4H348.3z"/>
</g>
</svg>
