<svg id="Layer_1" data-name="Layer 1" xmlns="http://www.w3.org/2000/svg" viewBox="0 0 556.86 512.06"><defs><style>.cls-1{fill:#fff;}</style></defs><path class="cls-1" d="M31,210.59c-16.55,5.4-22.13,7.64-23.27,8-1.71.56-2,.43-2.58-1.47L.34,202.3c-.62-1.9-.49-2.15,1.22-2.71,1.14-.37,7-1.85,23.51-7.25l.76-.25-4.71-14.45a257.5,257.5,0,0,0-10.33-27.13A180.8,180.8,0,0,1,32,145.27c2-.44,3.22.21,3.53,1.16.5,1.52.24,3.29.41,5.12.24,2.66,1.54,7.28,5.45,19.26l4.77,14.64,29.48-9.61-5.53-16.92a238.6,238.6,0,0,0-9.76-25.43c6.9-2,13.49-3.77,20.39-5.18,1.78-.37,3,.27,3.35,1.22.62,1.9.16,3.73.47,5.32.24,2.65,1.6,7.47,5,17.74L95,169.51l30.42-9.93L120,142.85a238.34,238.34,0,0,0-9.83-25.61c7.1-2.11,13.69-3.84,20.59-5.25,2-.43,3.22.21,3.53,1.16.62,1.91.17,3.74.29,5.38.23,2.66,1.59,7.47,5.07,18.12L145,153.19l2.86-.93c16.54-5.39,21.93-7.57,23.26-8,1.71-.56,2-.43,2.58,1.47l4.84,14.83c.62,1.9.49,2.16-1.22,2.72-1.33.43-7,1.85-23.51,7.25l-2.85.93,8.19,25.09c6.88,21.11,10.68,31.44,11.05,32.58.62,1.9.49,2.16-1.41,2.78L153.05,237c-1.9.63-2.15.5-2.78-1.4l-2.85-8.75L117,236.82l3,9.12c.62,1.9.49,2.16-1.41,2.78l-15.78,5.14c-1.71.56-2,.44-2.59-1.47-.43-1.33-3.34-11.53-10.1-32.25l-8.5-26-29.47,9.62,25.5,78.14,89.93-29.34c18.63-6.08,25-8.57,26.11-8.95,1.91-.62,2.16-.49,2.78,1.41l5,15.21c.62,1.91.49,2.16-1.41,2.78-1.14.37-7.73,2.1-26.36,8.18L83.71,300.48l2.73,8.37c.62,1.9.49,2.15-1.6,2.83L68.49,317c-1.9.62-2.16.49-2.78-1.41-.43-1.33-2.66-9.44-8.18-26.36L31.79,210.34Zm100.39-32.75L101,187.76l10.43,31.94,30.42-9.92Z"/><path class="cls-1" d="M317.23,189c-3.73-11.41-6.46-18.51-9.77-25.43,6.14-1.79,12.16-3.34,17.86-4.57a119.64,119.64,0,0,1-28.92-17.06l-20,6.51a127,127,0,0,1-11.38,29c5.19-1.49,11.28-2.84,16.21-3.82,2.41-.37,3.93-.23,4.49,1.48a10.39,10.39,0,0,1,0,4c-.26,2.4.41,5.75,1.21,8.86,6.42,25.46-.48,46.23-23.18,65.63-1.78,1.63-2.93,2.63-4.07,3-1.52.49-2.72-.59-5.86-3.14a45.18,45.18,0,0,0-13.8-7.49c25.53-17.16,32.33-32.43,27-53.21A64.6,64.6,0,0,0,262.89,181a140,140,0,0,1-31.67,36.42,14,14,0,0,1-4.13,2.82c-1.71.56-2.71-.59-5.54-3.45a50.8,50.8,0,0,0-12.28-9.25c21.48-14.79,37.08-32.08,44.35-51.71l-4.18,1.37c-18.44,6-25,8.57-26.31,9-1.71.56-2,.43-2.52-1.28-.43-1.33-1.73-6.59-5.76-19l-10.92-33.46c-4-12.36-6.15-17.56-6.52-18.7-.62-1.9-.49-2.15,1.22-2.71,1.33-.43,8.11-2.23,26.55-8.24l76.63-25c18.63-6.07,25.16-8.63,26.3-9,1.9-.62,2.15-.49,2.77,1.41.38,1.14,1.73,6.59,5.77,18.95l10.91,33.46c4,12.36,6.15,17.56,6.53,18.7.55,1.71.43,2-1.47,2.58-1.15.38-7.92,2.17-26.56,8.25l-7.6,2.48c17.52,9.85,39.31,14.73,68.47,13.21a51.55,51.55,0,0,0-4.27,15.91c-.35,4.11-.48,5.63-2,6.12-1,.31-2.47.18-4.81.1a153.78,153.78,0,0,1-43.65-8.69,17.59,17.59,0,0,1,0,3.16c.18,2.47,1,5.76,4.95,17.74l6.33,19.4c4.65,14.26,7.2,20.79,7.57,21.93.69,2.09.56,2.34-1.53,3l-16.36,5.34c-1.9.62-2.15.49-2.83-1.6-.37-1.14-2.16-7.92-6.82-22.18Zm-53.92-85.29L258.66,89.4l-36.88,12,4.65,14.26Zm9.37,28.71L268,118.11l-36.89,12,4.66,14.26Zm5-49.17,4.66,14.26,37.83-12.35-4.65-14.26Zm47.21,16.36L287,111.91l4.66,14.26,37.83-12.35Z"/><path class="cls-1" d="M471,43.89c-21.77,11.94-40.81,22.57-59.79,33.39-6.67,4.07-8.45,5.07-11,7-1.14,1-2.16,2.39-3.68,2.89A4.68,4.68,0,0,1,392,85.44c-4.14-4.32-8.41-10.3-13.73-18.24,9.57-3.54,15-6.16,29.17-13.09,22.27-11,62.05-31,109-53.45,2.73-1.31,4-.48,4.68.79a115.38,115.38,0,0,1,7.55,16.05c.74,2.28-.21,3.22-2.69,4C517.24,25,511.47,28,504.16,33.28c-28.72,21.58-37.62,49.1-30.18,71.91,8,24.53,29.84,32.13,63.6,23.43,3-1,4.43-.61,5.12,1.48a71.37,71.37,0,0,1,3.24,17c.36,3,0,4.42-2.31,5.17-33.46,10.92-76.42,3.69-89.33-35.86-8.81-27-1.26-49.66,16.84-72.18Zm44.34,8.25c.71-1.07,1.53-1.13,3-.55,7.38,2.64,16.71,8,24.7,14.45,1.13.89,1.44,1.84.42,3.23l-6.06,8.5c-1,1.38-2,1.5-3.42.48a99.29,99.29,0,0,0-26.4-15.79Zm12.89-17.88c.9-1.13,1.53-1.13,3-.55A83.51,83.51,0,0,1,555.68,47.4a2.31,2.31,0,0,1,.55,3.61l-5.68,8.37c-1.15,1.64-2.29,1.38-3.42.49A94.69,94.69,0,0,0,521,44.2Z"/><path class="cls-1" d="M343.71,336.83c12.54-4.1,16.22-5.72,17.36-6.09,1.9-.62,2.41-.36,3,1.54,1.92,6.52,3.53,12.1,5.51,18.18,10.36,32.39,20,64.58,24.05,87.88,2.31,14.81.74,22.9-13.9,27.68a76.54,76.54,0,0,1-9.25,2.59c-3.74.8-3.74.8-6.3-5.1A47.63,47.63,0,0,0,356.45,452a75.47,75.47,0,0,0,13.36-2.89c6.27-2,6.35-4.38,4.65-14.76-3.11-19.19-11-46.05-22.57-81.42l-9.7,3.17c5.5,20.08,9.56,38.95,11.6,55.54,2.33,21.32,1.33,40.16-5.58,62.19-.77,2.15-1.28,3.16-2,3.41-1,.31-2.22-.33-4.49-1.49a41.47,41.47,0,0,0-13.18-4.95l2.44-6.69a27.2,27.2,0,0,1-4.06,2.38c-11.3,6-29.38,15.05-44.92,22.23-3.3,1.49-5.77,2.93-6.67,4.07a5.2,5.2,0,0,1-2.35,1.82c-.76.24-1.89-.65-2.95-2.62-2.26-3.68-4.57-8.18-7.69-14.53,5.58-1.61,10.46-3.41,16.8-5.9,4.5-1.68,9.51-3.73,14.65-6l-3.29-10.08-5.9,1.92c-13.88,4.53-18.13,6.34-19.27,6.71-1.9.62-2.15.5-2.77-1.41l-3.6-11c-.62-1.9-.49-2.16,1.41-2.78,1.14-.37,5.64-1.42,19.52-5.95l5.89-1.92-3.1-9.5-4.56,1.48c-14.26,4.66-18.89,6.59-20,7-2.09.68-2.35.56-3-1.35-.43-1.33-1.41-5.63-4.64-15.52l-6.33-19.39c-3.35-10.27-5.09-14.33-5.53-15.66-.56-1.71-.43-2,1.66-2.65,1.14-.37,6-1.54,20.28-6.19l4.56-1.49-3-9.13-7,2.3c-14.83,4.84-19.65,6.83-20.79,7.2-1.9.62-2.15.49-2.77-1.41l-3.66-11.22c-.62-1.9-.5-2.15,1.41-2.77,1.14-.37,6.2-1.6,21-6.44l7-2.3-2.79-8.55c-4.38,2.05-8.76,4.11-13.39,6-4.81,2-4.88,1.81-7.64-1.5a48.77,48.77,0,0,0-8.36-7.58,48.7,48.7,0,0,0-.1,5.5,298.48,298.48,0,0,1-1.6,32.5l31.14,95.45c6,18.44,9.44,27.63,9.75,28.58.62,1.91.5,2.16-1.41,2.78l-14.26,4.65c-1.9.62-2.15.49-2.77-1.41-.37-1.14-3-10.39-9-28.83l-14-42.78c-2.11-6.47-4.46-14.32-6.75-22L212,429.66c-.78,2.14-1.54,3.66-2.5,4-.76.25-1.7-.71-3-2.81-4.07-7.29-6.7-11.49-10.59-15.68,8.81-23.92,10.4-44.21,10.1-67.68A77.34,77.34,0,0,0,204.46,333c6.46-.21,12.84-.61,18.91-.07,2.15.14,3.54.53,4,1.86s0,2.53-1.11,4.36a5.73,5.73,0,0,0-.83,2,317.87,317.87,0,0,0,47.26-22.79,32,32,0,0,0,7.12-5.9A99.17,99.17,0,0,1,293,320.13a5.79,5.79,0,0,1,2.2,2.85c.5,1.53-.27,2.41-1.79,2.9a34.33,34.33,0,0,0-5.52,2.43c-6,3.44-12.12,6.69-18.65,9.88l3.47,10.65,5.32-1.74c14.83-4.84,19.65-6.83,20.79-7.2,1.72-.56,2-.44,2.59,1.47l3.66,11.21c.62,1.9.49,2.16-1.22,2.72-1.14.37-6.21,1.6-21,6.44l-5.32,1.74,3,9.12,4.76-1.55c14.26-4.65,18.89-6.58,20-6.95,2.09-.69,2.34-.56,2.9,1.15.37,1.14,1.42,5.64,4.77,15.91l6.33,19.39c3.22,9.89,5,14.14,5.4,15.28.62,1.9.49,2.15-1.6,2.83-1.14.37-6,1.55-20.28,6.2L298,426.41l3.1,9.51,2.48-.81c13.88-4.53,18.12-6.34,19.26-6.71,2.1-.68,2.35-.55,3,1.35l3.6,11c.62,1.9.49,2.15-1.6,2.83-1.14.37-5.64,1.42-19.52,5.95l-2.47.81,2.73,8.36c6.53-3.18,13.77-6.8,21.13-10.68A79.36,79.36,0,0,0,331,457.1l.67,4c4.84-16.09,5.83-32.41,4-49.49-1.37-13.23-5.18-30.71-10.62-50-7.54,2.67-10.14,3.73-11.09,4-1.9.62-2.16.49-2.78-1.41l-4.4-13.5c-.62-1.9-.49-2.15,1.41-2.77.95-.31,3.92-.86,11.72-3.41-1.36-4.81-3-9.76-4.59-14.7-3.84-11.79-6.77-19.46-10.14-26.56,5.77-1.67,13.37-3.52,18.12-4.44,2-.24,3.41.14,3.72,1.1.5,1.52,0,3.35.29,5.37.11,2.28,1.53,7.92,5.37,19.71,1.55,4.75,3,9.31,4.34,13.94ZM272,398.73l-3.1-9.5-12.17,4,3.1,9.5Zm6.82,20.92-3.22-9.89-12.17,4,3.23,9.89Zm5.48-35.45,3.1,9.51,12.36-4-3.1-9.51Zm19.06,16.5-12.36,4,3.22,9.89,12.36-4Z"/><path class="cls-1" d="M474,266.76a4.88,4.88,0,0,1,2.51,2.54c.56,1.71,0,3.16-1.48,4.48a38.14,38.14,0,0,0-7,9.64c-11.57,20-26.1,46.38-35.77,66.37-1,2.65-1.42,4-1.11,5,.37,1.14,1.44,1.84,3.59,2.61,30.55,9.81,63,22.16,90.27,36.81,1.07.71,1.89,1.28,2.14,2s0,1.46-.59,2.72c-2.82,6.18-6.54,13.49-8.84,17.4-.83,1.32-1.4,2.14-2.16,2.39s-1.52-.14-2.84-1a504.43,504.43,0,0,0-90.18-41.68c-9-3.16-13.24-6.41-15.29-12.69s0-11.57,3.86-19.77c10.45-22.76,21.08-43.69,31.6-66.9,3.34-7.19,4.89-12.11,5.62-17.61A158.62,158.62,0,0,1,474,266.76Z"/></svg>